<svg xmlns="http://www.w3.org/2000/svg" xmlns:xlink="http://www.w3.org/1999/xlink" viewBox="0 0 270 226" preserveAspectRatio="xMidYMid" style="display: block; shape-rendering: auto; background: transparent;" width="270" height="226"><style type="text/css">
  .ld-text text {
    text-anchor: middle;
    dominant-baseline: middle;
    font-size: 80px;
    opacity: 0;
    user-select: none;
    pointer-events: none;
  }
</style>
<g style="transform-origin:135px 113px;transform:scale(1)" class="ld-text">
<g transform="translate(135,113)">
  <g transform="scale(1.0000) translate(0,0)"><g class="path" style="opacity: 1; animation: 0.990099s linear -0.522772s infinite normal forwards running animate-ybjx4o7ycb9; transform-box: view-box; transform-origin: -105.41px -1.17px;"><path d="M52.46 36.96L52.46 36.96Q52.46 40.60 51.54 43.37Q50.63 46.14 48.96 48.17Q47.30 50.20 45.04 51.57Q42.77 52.94 40.10 53.76Q37.42 54.58 34.43 54.93Q31.45 55.28 28.36 55.28L28.36 55.28Q24.30 55.28 20.86 54.68Q17.42 54.07 14.39 52.76Q11.37 51.45 8.57 49.38Q5.78 47.31 3.01 44.35L3.01 44.35L10.98 36.26Q12.07 38.95 13.98 41.24Q15.90 43.52 18.18 45.17Q20.47 46.81 22.93 47.74Q25.39 48.68 27.58 48.68L27.58 48.68Q30.16 48.68 32.42 48.31Q34.69 47.94 36.37 47.08Q38.05 46.22 39 44.79Q39.96 43.37 39.96 41.22L39.96 41.22Q39.96 39.58 39.22 38.41Q38.48 37.24 37.29 36.40Q36.09 35.56 34.57 34.97Q33.05 34.38 31.46 33.97Q29.88 33.56 28.36 33.23Q26.84 32.90 25.66 32.55L25.66 32.55Q23.36 31.88 20.86 31.12Q18.36 30.36 15.94 29.38Q13.52 28.41 11.35 27.14Q9.18 25.87 7.54 24.13Q5.90 22.39 4.92 20.11Q3.95 17.82 3.95 14.85L3.95 14.85Q3.95 11.30 4.82 8.54Q5.70 5.79 7.30 3.76Q8.91 1.73 11.09 0.34Q13.28-1.05 15.90-1.89Q18.52-2.73 21.46-3.10Q24.41-3.47 27.50-3.47L27.50-3.47Q31.72-3.47 35.18-2.69Q38.63-1.90 41.56-0.46Q44.49 0.99 46.93 3Q49.38 5.01 51.52 7.47L51.52 7.47L43.55 15.56Q42.62 12.74 40.96 10.48Q39.30 8.21 37.27 6.59Q35.23 4.97 33.01 4.09Q30.78 3.21 28.71 3.21L28.71 3.21Q26.02 3.21 23.75 3.58Q21.48 3.95 19.86 4.79Q18.24 5.63 17.34 7.06Q16.45 8.49 16.45 10.60L16.45 10.60Q16.45 12.27 17.11 13.45Q17.77 14.62 18.89 15.44Q20 16.26 21.41 16.79Q22.81 17.31 24.32 17.70Q25.82 18.10 27.29 18.39Q28.75 18.68 29.96 19.03L29.96 19.03Q32.30 19.70 34.88 20.44Q37.46 21.18 39.96 22.18Q42.46 23.17 44.73 24.46Q46.99 25.75 48.71 27.53Q50.43 29.31 51.45 31.63Q52.46 33.95 52.46 36.96" style="fill: rgb(179, 226, 205);" transform="translate(-133.149,-27.075)"></path></g><g class="path" style="opacity: 1; animation: 0.990099s linear -0.392079s infinite normal forwards running animate-ybjx4o7ycb9; transform-box: view-box; transform-origin: -50.84px -1.05px;"><path d="M102.50 46.96L102.50 54.15L62.11 54.15L62.11-2.10L102.50-2.10L102.50 5.09L77.62 5.09L77.62 22.47L96.84 22.47L96.84 29.62L77.62 29.62L77.62 46.96L102.50 46.96" style="fill: rgb(253, 205, 172);" transform="translate(-133.149,-27.075)"></path></g><g class="path" style="opacity: 1; animation: 0.990099s linear -0.261386s infinite normal forwards running animate-ybjx4o7ycb9; transform-box: view-box; transform-origin: -0.84px -1.05px;"><path d="M152.50 46.96L152.50 54.15L112.11 54.15L112.11-2.10L152.50-2.10L152.50 5.09L127.62 5.09L127.62 22.47L146.84 22.47L146.84 29.62L127.62 29.62L127.62 46.96L152.50 46.96" style="fill: rgb(203, 213, 232);" transform="translate(-133.149,-27.075)"></path></g><g class="path" style="opacity: 1; animation: 0.990099s linear -0.130693s infinite normal forwards running animate-ybjx4o7ycb9; transform-box: view-box; transform-origin: 50.46px -1.05px;"><path d="M211.17-2.10L191.25 54.15L177.07 54.15L156.05-2.10L171.88-2.10L187.46 43.17L201.56-2.10L211.17-2.10" style="fill: rgb(244, 202, 228);" transform="translate(-133.149,-27.075)"></path></g><g class="path" style="opacity: 1; animation: 0.990099s linear 0s infinite normal forwards running animate-ybjx4o7ycb9; transform-box: view-box; transform-origin: 109.04px 4.32px;"><path d="M269.30 27.24L269.30 27.24L269.30 27.98Q269.22 31.26 268.61 34.77Q268.01 38.29 266.91 41.81Q265.82 45.32 264.30 48.76Q262.77 52.20 260.88 55.34Q258.98 58.49 256.80 61.24Q254.61 63.99 252.19 66.10L252.19 66.10L246.37 62.74Q247.73 60.44 248.85 57.72Q249.96 55.01 250.86 52.04Q251.76 49.07 252.40 45.95Q253.05 42.82 253.48 39.74Q253.91 36.65 254.12 33.66Q254.34 30.67 254.34 27.98L254.34 27.98Q254.34 25.87 254.32 23.19Q254.30 20.52 254 17.74Q253.71 14.97 253.05 12.33Q252.38 9.70 251.07 7.63Q249.77 5.56 247.71 4.31Q245.66 3.06 242.62 3.06L242.62 3.06Q239.92 3.06 237.99 3.97Q236.05 4.89 234.71 6.44Q233.36 7.98 232.56 10.01Q231.76 12.04 231.31 14.29Q230.86 16.53 230.72 18.82Q230.59 21.10 230.59 23.13L230.59 23.13L230.59 34.03L247.42 34.03L247.42 40.48L230.59 40.48L230.59 54.15L215.08 54.15L215.08 25.56Q215.08 19.42 217.03 14.15Q218.98 8.88 222.56 4.99Q226.13 1.10 231.15-1.10Q236.17-3.31 242.34-3.31L242.34-3.31Q246.52-3.31 250.18-2.12Q253.83-0.93 256.84 1.16Q259.84 3.25 262.21 6.12Q264.57 8.99 266.15 12.39Q267.73 15.79 268.55 19.58Q269.38 23.37 269.30 27.24" style="fill: rgb(230, 245, 201);" transform="translate(-133.149,-27.075)"></path></g></g><text dy="0.35em" fill="#b3e2cd" font-family="Aclonica" font-size="80">SEEVA</text>
</g>
</g><style type="text/css">@keyframes animate-ybjx4o7ycb9 { 0.00% {animation-timing-function: cubic-bezier(0.33,0.00,0.67,0.00);transform: translate(0.00px,0.00px) rotate(0.00deg) scale(1.00, 1.00) skew(0deg, 0.00deg) ;opacity: 1.00;}48.00% {transform: translate(0.00px,0.00px) rotate(0.00deg) ;opacity: 1.00;}50.00% {animation-timing-function: cubic-bezier(0.33,0.00,0.67,0.00);transform: translate(0.00px,0.00px) rotate(0.00deg) ;opacity: 0.00;}100.00% {animation-timing-function: cubic-bezier(0.33,0.00,0.67,0.00);transform: translate(0.00px,0.00px) rotate(0.00deg) ;opacity: 0.00;} }</style><!-- [ldio] generated by https://loading.io --></svg>